<?xml version="1.0" standalone="no"?>
<!DOCTYPE svg PUBLIC "-//W3C//DTD SVG 20010904//EN"
 "http://www.w3.org/TR/2001/REC-SVG-20010904/DTD/svg10.dtd">
<svg version="1.0" xmlns="http://www.w3.org/2000/svg"
 width="275.000000pt" height="275.000000pt" viewBox="0 0 275.000000 275.000000"
 preserveAspectRatio="xMidYMid meet">
<metadata>
Created by potrace 1.14, written by Peter Selinger 2001-2017
</metadata>
<g transform="translate(0.000000,275.000000) scale(0.100000,-0.100000)"
fill="#000000" stroke="none">
<path d="M1175 2734 c-207 -33 -363 -94 -538 -211 -104 -69 -253 -208 -325
-304 -138 -184 -236 -421 -269 -652 -10 -67 -9 -313 1 -397 12 -99 70 -289
122 -397 186 -389 530 -660 949 -748 105 -22 344 -27 450 -10 119 20 132 23
230 57 377 128 686 434 828 818 55 147 79 281 83 450 6 308 -67 564 -231 810
-196 295 -502 502 -850 575 -102 22 -342 27 -450 9z"/>
</g>
</svg>
